<mxfile host="app.diagrams.net" modified="2024-01-20T10:11:03.208Z" agent="Mozilla/5.0 (Macintosh; Intel Mac OS X 10_15_7) AppleWebKit/537.36 (KHTML, like Gecko) Chrome/120.0.0.0 Whale/3.24.223.18 Safari/537.36" etag="GuM6KhQxBgSWeBsnqYtd" version="22.1.20" type="github">
  <diagram name="페이지-1" id="c-1A3aX_q-X58KD7lkT5">
    <mxGraphModel dx="338" dy="643" grid="1" gridSize="10" guides="1" tooltips="1" connect="1" arrows="1" fold="1" page="1" pageScale="1" pageWidth="1169" pageHeight="827" math="0" shadow="0">
      <root>
        <mxCell id="0" />
        <mxCell id="1" parent="0" />
        <mxCell id="Dp4_jAzWeO5LzgAZ3dpD-2" value="&lt;font style=&quot;font-size: 17px;&quot;&gt;Producer&lt;/font&gt;" style="rounded=1;whiteSpace=wrap;html=1;fillColor=#dae8fc;strokeColor=#6c8ebf;" parent="1" vertex="1">
          <mxGeometry x="120" y="120" width="120" height="80" as="geometry" />
        </mxCell>
        <mxCell id="Dp4_jAzWeO5LzgAZ3dpD-3" value="&lt;span style=&quot;font-size: 17px;&quot;&gt;Kafka Broker&lt;/span&gt;" style="rounded=1;whiteSpace=wrap;html=1;fillColor=#d5e8d4;strokeColor=#82b366;" parent="1" vertex="1">
          <mxGeometry x="360" y="120" width="120" height="80" as="geometry" />
        </mxCell>
        <mxCell id="Dp4_jAzWeO5LzgAZ3dpD-9" value="" style="group" parent="1" vertex="1" connectable="0">
          <mxGeometry x="310" y="359" width="200" height="110" as="geometry" />
        </mxCell>
        <mxCell id="Dp4_jAzWeO5LzgAZ3dpD-4" value="" style="rounded=1;whiteSpace=wrap;html=1;fillColor=#ffe6cc;strokeColor=#d79b00;" parent="Dp4_jAzWeO5LzgAZ3dpD-9" vertex="1">
          <mxGeometry width="200" height="110" as="geometry" />
        </mxCell>
        <mxCell id="Dp4_jAzWeO5LzgAZ3dpD-5" value="foo&lt;br&gt;PID : 5&lt;br&gt;SEQ : 2" style="rounded=0;whiteSpace=wrap;html=1;" parent="Dp4_jAzWeO5LzgAZ3dpD-9" vertex="1">
          <mxGeometry x="10" y="11" width="60" height="59" as="geometry" />
        </mxCell>
        <mxCell id="Dp4_jAzWeO5LzgAZ3dpD-6" value="Partition" style="text;html=1;strokeColor=none;fillColor=none;align=center;verticalAlign=middle;whiteSpace=wrap;rounded=0;" parent="Dp4_jAzWeO5LzgAZ3dpD-9" vertex="1">
          <mxGeometry x="70" y="80" width="60" height="30" as="geometry" />
        </mxCell>
        <mxCell id="Dp4_jAzWeO5LzgAZ3dpD-7" value="bar&lt;br&gt;PID : 5&lt;br&gt;SEQ : 1" style="rounded=0;whiteSpace=wrap;html=1;fillColor=#f8cecc;strokeColor=#b85450;" parent="Dp4_jAzWeO5LzgAZ3dpD-9" vertex="1">
          <mxGeometry x="70" y="11" width="60" height="59" as="geometry" />
        </mxCell>
        <mxCell id="Dp4_jAzWeO5LzgAZ3dpD-8" value="" style="rounded=0;whiteSpace=wrap;html=1;" parent="Dp4_jAzWeO5LzgAZ3dpD-9" vertex="1">
          <mxGeometry x="130" y="11" width="60" height="59" as="geometry" />
        </mxCell>
        <mxCell id="Dp4_jAzWeO5LzgAZ3dpD-10" value="" style="endArrow=classic;html=1;rounded=0;exitX=1;exitY=0.25;exitDx=0;exitDy=0;entryX=0;entryY=0.25;entryDx=0;entryDy=0;" parent="1" edge="1">
          <mxGeometry width="50" height="50" relative="1" as="geometry">
            <mxPoint x="240" y="130" as="sourcePoint" />
            <mxPoint x="360" y="130" as="targetPoint" />
          </mxGeometry>
        </mxCell>
        <mxCell id="Dp4_jAzWeO5LzgAZ3dpD-11" value="" style="endArrow=classic;html=1;rounded=0;exitX=1;exitY=0.25;exitDx=0;exitDy=0;entryX=0;entryY=0.25;entryDx=0;entryDy=0;" parent="1" edge="1">
          <mxGeometry width="50" height="50" relative="1" as="geometry">
            <mxPoint x="240" y="190" as="sourcePoint" />
            <mxPoint x="360" y="190" as="targetPoint" />
          </mxGeometry>
        </mxCell>
        <mxCell id="Dp4_jAzWeO5LzgAZ3dpD-12" value="Send(bar)&lt;br&gt;PID : 2&lt;br&gt;SEQ : 1" style="text;html=1;strokeColor=none;fillColor=none;align=center;verticalAlign=middle;whiteSpace=wrap;rounded=0;" parent="1" vertex="1">
          <mxGeometry x="280" y="90" width="60" height="30" as="geometry" />
        </mxCell>
        <mxCell id="Dp4_jAzWeO5LzgAZ3dpD-13" value="&lt;font style=&quot;font-size: 15px;&quot;&gt;1&lt;/font&gt;" style="ellipse;whiteSpace=wrap;html=1;aspect=fixed;fillColor=#f5f5f5;fontColor=#333333;strokeColor=#666666;" parent="1" vertex="1">
          <mxGeometry x="255" y="95" width="20" height="20" as="geometry" />
        </mxCell>
        <mxCell id="Dp4_jAzWeO5LzgAZ3dpD-14" value="Retry(bar)&lt;br&gt;PID : 2&lt;br&gt;SEQ : 1" style="text;html=1;strokeColor=none;fillColor=none;align=center;verticalAlign=middle;whiteSpace=wrap;rounded=0;" parent="1" vertex="1">
          <mxGeometry x="280" y="150" width="60" height="30" as="geometry" />
        </mxCell>
        <mxCell id="Dp4_jAzWeO5LzgAZ3dpD-15" value="&lt;font style=&quot;font-size: 15px;&quot;&gt;4&lt;/font&gt;" style="ellipse;whiteSpace=wrap;html=1;aspect=fixed;fillColor=#f5f5f5;fontColor=#333333;strokeColor=#666666;" parent="1" vertex="1">
          <mxGeometry x="255" y="155" width="20" height="20" as="geometry" />
        </mxCell>
        <mxCell id="Dp4_jAzWeO5LzgAZ3dpD-16" value="" style="endArrow=classic;html=1;rounded=0;exitX=0.4;exitY=0.988;exitDx=0;exitDy=0;exitPerimeter=0;entryX=0.5;entryY=0;entryDx=0;entryDy=0;" parent="1" source="Dp4_jAzWeO5LzgAZ3dpD-3" target="Dp4_jAzWeO5LzgAZ3dpD-7" edge="1">
          <mxGeometry width="50" height="50" relative="1" as="geometry">
            <mxPoint x="250" y="530" as="sourcePoint" />
            <mxPoint x="300" y="480" as="targetPoint" />
          </mxGeometry>
        </mxCell>
        <mxCell id="Dp4_jAzWeO5LzgAZ3dpD-18" value="Append(bar)&lt;br&gt;PID : 5&lt;br&gt;SEQ : 1" style="text;html=1;strokeColor=none;fillColor=none;align=center;verticalAlign=middle;whiteSpace=wrap;rounded=0;" parent="1" vertex="1">
          <mxGeometry x="335" y="295" width="60" height="30" as="geometry" />
        </mxCell>
        <mxCell id="Dp4_jAzWeO5LzgAZ3dpD-19" value="&lt;font style=&quot;font-size: 15px;&quot;&gt;2&lt;/font&gt;" style="ellipse;whiteSpace=wrap;html=1;aspect=fixed;fillColor=#f5f5f5;fontColor=#333333;strokeColor=#666666;" parent="1" vertex="1">
          <mxGeometry x="310" y="300" width="20" height="20" as="geometry" />
        </mxCell>
        <mxCell id="Dp4_jAzWeO5LzgAZ3dpD-22" value="" style="endArrow=classic;html=1;rounded=0;entryX=0.417;entryY=1;entryDx=0;entryDy=0;entryPerimeter=0;edgeStyle=orthogonalEdgeStyle;" parent="1" target="Dp4_jAzWeO5LzgAZ3dpD-2" edge="1">
          <mxGeometry width="50" height="50" relative="1" as="geometry">
            <mxPoint x="380" y="200" as="sourcePoint" />
            <mxPoint x="300" y="480" as="targetPoint" />
            <Array as="points">
              <mxPoint x="380" y="230" />
              <mxPoint x="170" y="230" />
            </Array>
          </mxGeometry>
        </mxCell>
        <mxCell id="Dp4_jAzWeO5LzgAZ3dpD-23" value="ack success(bar)" style="text;html=1;strokeColor=none;fillColor=none;align=center;verticalAlign=middle;whiteSpace=wrap;rounded=0;" parent="1" vertex="1">
          <mxGeometry x="280" y="230" width="100" height="30" as="geometry" />
        </mxCell>
        <mxCell id="Dp4_jAzWeO5LzgAZ3dpD-24" value="&lt;font style=&quot;font-size: 15px;&quot;&gt;5&lt;/font&gt;" style="ellipse;whiteSpace=wrap;html=1;aspect=fixed;fillColor=#f5f5f5;fontColor=#333333;strokeColor=#666666;" parent="1" vertex="1">
          <mxGeometry x="255" y="235" width="20" height="20" as="geometry" />
        </mxCell>
        <mxCell id="Dp4_jAzWeO5LzgAZ3dpD-25" value="ack fail(bar)" style="text;html=1;strokeColor=none;fillColor=none;align=center;verticalAlign=middle;whiteSpace=wrap;rounded=0;" parent="1" vertex="1">
          <mxGeometry x="280" y="20" width="75" height="30" as="geometry" />
        </mxCell>
        <mxCell id="Dp4_jAzWeO5LzgAZ3dpD-26" value="&lt;font style=&quot;font-size: 15px;&quot;&gt;3&lt;/font&gt;" style="ellipse;whiteSpace=wrap;html=1;aspect=fixed;fillColor=#f5f5f5;fontColor=#333333;strokeColor=#666666;" parent="1" vertex="1">
          <mxGeometry x="255" y="25" width="20" height="20" as="geometry" />
        </mxCell>
        <mxCell id="TrpPptZFsJJx3Wmb2LOC-2" value="" style="endArrow=classic;html=1;rounded=0;exitX=0.45;exitY=-0.012;exitDx=0;exitDy=0;exitPerimeter=0;edgeStyle=orthogonalEdgeStyle;" edge="1" parent="1" source="Dp4_jAzWeO5LzgAZ3dpD-3">
          <mxGeometry width="50" height="50" relative="1" as="geometry">
            <mxPoint x="460" y="70" as="sourcePoint" />
            <mxPoint x="250" y="51" as="targetPoint" />
            <Array as="points">
              <mxPoint x="414" y="51" />
              <mxPoint x="280" y="51" />
            </Array>
          </mxGeometry>
        </mxCell>
        <mxCell id="TrpPptZFsJJx3Wmb2LOC-3" value="" style="verticalLabelPosition=bottom;verticalAlign=top;html=1;shape=mxgraph.basic.x;fillColor=#FF0000;strokeColor=#FF0000;" vertex="1" parent="1">
          <mxGeometry x="230" y="45" width="25" height="15" as="geometry" />
        </mxCell>
      </root>
    </mxGraphModel>
  </diagram>
</mxfile>
